<svg width="128" height="128" viewBox="0 0 128 128" fill="none" xmlns="http://www.w3.org/2000/svg">
<g filter="url(#filter0_d_221_25)">
<path d="M4 24C4 10.7452 14.7452 0 28 0H100C113.255 0 124 10.7452 124 24V96C124 109.255 113.255 120 100 120H28C14.7452 120 4 109.255 4 96V24Z" fill="#13141B"/>
<path d="M25.88 35.896H57.624V44.856H46.168V83H36.888V44.856H25.88V35.896Z" fill="url(#paint0_linear_221_25)"/>
<path d="M78.804 68.344L61.46 35.896H72.916L85.076 60.344L82.324 60.536L94.292 35.896H105.748L88.084 68.344V83H78.804V68.344Z" fill="url(#paint1_linear_221_25)"/>
</g>
<defs>
<filter id="filter0_d_221_25" x="0" y="0" width="128" height="128" filterUnits="userSpaceOnUse" color-interpolation-filters="sRGB">
<feFlood flood-opacity="0" result="BackgroundImageFix"/>
<feColorMatrix in="SourceAlpha" type="matrix" values="0 0 0 0 0 0 0 0 0 0 0 0 0 0 0 0 0 0 127 0" result="hardAlpha"/>
<feOffset dy="4"/>
<feGaussianBlur stdDeviation="2"/>
<feComposite in2="hardAlpha" operator="out"/>
<feColorMatrix type="matrix" values="0 0 0 0 0 0 0 0 0 0 0 0 0 0 0 0 0 0 0.25 0"/>
<feBlend mode="normal" in2="BackgroundImageFix" result="effect1_dropShadow_221_25"/>
<feBlend mode="normal" in="SourceGraphic" in2="effect1_dropShadow_221_25" result="shape"/>
</filter>
<linearGradient id="paint0_linear_221_25" x1="42.5" y1="83" x2="87.5" y2="38" gradientUnits="userSpaceOnUse">
<stop stop-color="#5BDD66"/>
<stop offset="1" stop-color="#EA7BFE"/>
</linearGradient>
<linearGradient id="paint1_linear_221_25" x1="42.5" y1="83" x2="87.5" y2="38" gradientUnits="userSpaceOnUse">
<stop stop-color="#5BDD66"/>
<stop offset="1" stop-color="#EA7BFE"/>
</linearGradient>
</defs>
</svg>
